PathFileType	3	(X/Y/Z)	RCH0000002 BBF 09.c3d
DataRate	CameraRate	NumFrames	NumMarkers	Units	OrigDataRate	OrigDataStartFrame	OrigNumFrames
100.0	100.0	5	23	mm	100.0	202	352
Frame#	Time	T2			T10			MAN			LASI			RASI			LPSI			RPSI			LPAT			LKNE			LANK			LMED			LHEE			LTOE			RPAT			RKNE			RANK			RMED			RHEE			RTOE			RTHI			LTHI			RTIB			LTIB			
		X1	Y1	Z1	X2	Y2	Z2	X3	Y3	Z3	X4	Y4	Z4	X5	Y5	Z5	X6	Y6	Z6	X7	Y7	Z7	X8	Y8	Z8	X9	Y9	Z9	X10	Y10	Z10	X11	Y11	Z11	X12	Y12	Z12	X13	Y13	Z13	X14	Y14	Z14	X15	Y15	Z15	X16	Y16	Z16	X17	Y17	Z17	X18	Y18	Z18	X19	Y19	Z19	X20	Y20	Z20	X21	Y21	Z21	X22	Y22	Z22	X23	Y23	Z23	

202	2.010	-846.46859	39.00639	988.71964	-832.21123	47.44017	802.58905	-716.07178	69.22292	966.20036	-738.01348	120.40970	649.02445	-731.62202	-54.46189	675.66531	-845.84418	72.53890	708.53351	-842.21645	2.80399	721.60368	-646.82583	85.23828	409.40582	-694.29638	137.19054	363.79927	-833.05084	139.03804	134.41638	-812.70826	70.31040	139.75494	-851.58174	91.03940	170.06798	-783.52304	113.09277	111.03064	-773.76818	0.09445	384.38724	-814.66499	-59.73591	355.06392	-880.44008	-60.75584	86.40691	-901.44230	4.12350	102.21613	-928.94628	-41.24620	122.91053	-844.47189	-15.71102	75.14725	-770.36175	-127.88351	458.62792	-736.05059	207.33931	481.03492	-838.42863	-126.89683	238.30053	-760.11119	199.74507	274.47787	
203	2.020	-837.47840	39.19153	989.07049	-824.51904	47.58987	802.64502	-707.30726	69.81933	965.51374	-728.81887	119.98850	648.97168	-724.09523	-55.04093	675.91340	-837.53619	73.29180	707.70355	-834.41705	3.55373	721.13761	-632.33397	85.69419	413.28178	-678.48843	137.28320	366.18812	-808.40864	138.72255	131.78433	-788.32803	70.03749	137.95662	-828.37336	90.85252	166.78145	-757.94339	112.71038	110.35414	-771.23191	-1.16289	384.13922	-812.80665	-60.87907	355.69274	-879.92855	-60.60027	87.06893	-900.52034	4.30721	103.15630	-928.09890	-40.91990	123.93470	-843.80221	-15.66932	75.42221	-766.57695	-128.56781	458.70815	-723.87500	207.49257	482.06805	-837.73211	-127.49443	238.64704	-740.85942	199.71912	274.37148	
204	2.030	-828.48531	39.53763	989.09433	-816.84796	47.88601	802.34080	-698.55682	70.50761	964.41604	-719.55749	119.54728	648.53786	-716.43298	-55.59738	675.97619	-829.17293	74.03571	706.46944	-826.55210	4.31225	720.35026	-618.31645	85.95966	416.53667	-663.14274	137.21133	368.06623	-783.74884	138.53725	128.90646	-764.05365	69.85836	135.85614	-805.19486	90.81856	163.15209	-732.47651	112.38386	109.42157	-768.32222	-2.35887	383.78441	-810.56002	-61.99312	356.23930	-879.40322	-60.47379	87.71111	-899.57268	4.44792	104.09451	-927.19788	-40.63183	124.99121	-843.12994	-15.64804	75.66992	-762.47730	-129.23586	458.69006	-711.93906	207.45019	482.61419	-836.78588	-128.08264	238.92778	-721.75641	199.66217	273.88853	
205	2.040	-819.49982	40.07856	988.79667	-809.15726	48.32290	801.69089	-689.82931	71.30816	962.94641	-710.19595	119.07400	647.75010	-708.59385	-56.14118	675.86342	-820.70599	74.74531	704.87880	-818.57118	5.05177	719.27318	-604.84929	85.90854	419.09668	-648.32782	136.90266	369.38312	-759.18729	138.46487	125.75007	-740.02217	69.74555	133.39767	-782.17288	90.91729	159.13706	-707.25276	112.08660	108.18952	-765.00070	-3.47444	383.31755	-807.87398	-63.06342	356.69038	-878.85071	-60.38773	88.34024	-898.58878	4.53182	105.03842	-926.23154	-40.39949	126.09198	-842.44870	-15.65189	75.88869	-758.00919	-129.88774	458.55606	-700.19568	207.16145	482.67219	-835.55706	-128.66170	239.14529	-702.87480	199.52478	272.99651	
206	2.050	-810.52791	40.83701	988.18946	-801.40271	48.88612	800.71672	-681.12753	72.23602	961.15233	-700.70538	118.56287	646.64182	-700.53988	-56.67922	675.58144	-812.09120	75.39915	702.98356	-810.42688	5.74645	717.93863	-591.99795	85.41902	420.89322	-634.10034	136.29019	370.09177	-734.87790	138.47946	122.28955	-716.41099	69.66568	130.53805	-759.46916	91.12411	154.71024	-682.44217	111.78173	106.61837	-761.20972	-4.49476	382.72810	-804.68260	-64.07434	357.02718	-878.24156	-60.36263	88.96381	-897.54752	4.53490	105.99896	-925.16953	-40.25419	127.25174	-841.74259	-15.69121	76.07573	-753.11194	-130.51964	458.28889	-688.59244	206.58385	482.24544	-833.98689	-129.23380	239.30043	-684.29329	199.25617	271.66539	
